<svg width="94" height="72" viewBox="0 0 94 72" fill="none" xmlns="http://www.w3.org/2000/svg">
<path d="M46.5 0C40.5348 0.00712669 34.8159 2.41005 30.5979 6.68165C26.3798 10.9533 24.0071 16.7448 24 22.7857C23.9929 27.7224 25.5852 32.5251 28.5327 36.4571C28.5327 36.4571 29.1464 37.2754 29.2466 37.3934L46.5 58L63.7616 37.3831C63.8516 37.2733 64.4673 36.4571 64.4673 36.4571L64.4693 36.4509C67.4154 32.5206 69.007 27.7201 69 22.7857C68.9929 16.7448 66.6202 10.9533 62.4021 6.68165C58.1841 2.41005 52.4652 0.00712669 46.5 0ZM55.1114 24.2399L46.5061 33.1429L37.8886 24.2399C36.8539 23.158 36.2754 21.7109 36.2754 20.2047C36.2754 18.6986 36.8539 17.2515 37.8886 16.1696C38.396 15.6414 39.0028 15.2216 39.6732 14.9349C40.3435 14.6483 41.0637 14.5006 41.7914 14.5006C42.519 14.5006 43.2393 14.6483 43.9096 14.9349C44.5799 15.2216 45.1867 15.6414 45.6941 16.1696L46.5061 17.0085L47.31 16.1696C47.8174 15.6414 48.4242 15.2216 49.0945 14.9349C49.7648 14.6483 50.4851 14.5006 51.2127 14.5006C51.9404 14.5006 52.6606 14.6483 53.3309 14.9349C54.0013 15.2216 54.608 15.6414 55.1154 16.1696C56.1502 17.2515 56.7287 18.6986 56.7287 20.2047C56.7287 21.7109 56.1502 23.158 55.1154 24.2399H55.1114Z" fill="#FF7043"/>
<path d="M10.1971 63.232C10.2451 63.292 10.2331 63.358 10.1611 63.43L10.0171 63.538C9.95711 63.538 9.91511 63.556 9.89111 63.592C9.87911 63.616 9.84311 63.64 9.78311 63.664C9.69911 63.7 9.63311 63.736 9.58511 63.772C9.54911 63.796 9.44711 63.82 9.27911 63.844C8.89511 63.784 8.46911 63.76 8.00111 63.772C7.53311 63.772 7.14311 63.784 6.83111 63.808C6.90311 64.348 6.94511 64.918 6.95711 65.518C6.96911 66.118 6.96311 66.73 6.93911 67.354C6.92711 67.966 6.90311 68.572 6.86711 69.172C6.84311 69.772 6.83111 70.342 6.83111 70.882V71.188C6.77111 70.984 6.72311 70.762 6.68711 70.522C6.66311 70.438 6.64511 70.36 6.63311 70.288C6.62111 70.228 6.60311 70.156 6.57911 70.072C6.41111 69.1 6.32711 68.074 6.32711 66.994C6.32711 65.914 6.39311 64.864 6.52511 63.844C5.84111 63.94 5.18111 64.042 4.54511 64.15C3.90911 64.258 3.27911 64.414 2.65511 64.618C2.58311 64.642 2.51111 64.66 2.43911 64.672C2.37911 64.684 2.31311 64.702 2.24111 64.726C2.18111 64.666 2.12711 64.624 2.07911 64.6C2.03111 64.576 2.00111 64.516 1.98911 64.42C1.96511 64.288 2.00111 64.186 2.09711 64.114C2.19311 64.03 2.28911 63.94 2.38511 63.844C2.42111 63.832 2.44511 63.802 2.45711 63.754C2.46911 63.706 2.48111 63.658 2.49311 63.61C2.51711 63.562 2.53511 63.52 2.54711 63.484C2.55911 63.436 2.58311 63.406 2.61911 63.394C3.20711 63.19 3.82511 63.028 4.47311 62.908C5.12111 62.788 5.76911 62.716 6.41711 62.692C7.07711 62.668 7.72511 62.698 8.36111 62.782C9.00911 62.866 9.62111 63.016 10.1971 63.232ZM13.6233 64.078C13.7193 64.174 13.7553 64.252 13.7313 64.312C13.7193 64.372 13.6833 64.396 13.6233 64.384C13.4673 64.384 13.2933 64.402 13.1013 64.438C12.9213 64.462 12.7233 64.486 12.5073 64.51C12.3033 64.522 12.0873 64.522 11.8593 64.51C11.6313 64.498 11.4033 64.456 11.1753 64.384C11.0793 64.288 11.0793 64.204 11.1753 64.132C11.2833 64.048 11.3673 63.928 11.4273 63.772C11.4633 63.664 11.5113 63.592 11.5713 63.556C11.6433 63.508 11.7153 63.478 11.7873 63.466C11.9193 63.466 12.0813 63.496 12.2733 63.556C12.4773 63.604 12.6453 63.634 12.7773 63.646C12.9813 63.67 13.1493 63.706 13.2813 63.754C13.4133 63.79 13.5273 63.898 13.6233 64.078ZM13.2453 66.526C13.3173 66.802 13.3713 67.054 13.4073 67.282C13.4553 67.51 13.4853 67.732 13.4973 67.948C13.5213 68.152 13.5333 68.362 13.5333 68.578C13.5453 68.794 13.5513 69.028 13.5513 69.28C13.5513 69.328 13.5213 69.382 13.4613 69.442C13.4133 69.49 13.3773 69.544 13.3533 69.604C13.3053 69.712 13.2633 69.778 13.2273 69.802C13.2033 69.826 13.1553 69.856 13.0833 69.892C12.9153 69.964 12.7653 70.066 12.6333 70.198C12.4773 69.97 12.3693 69.706 12.3093 69.406C12.2613 69.106 12.2253 68.794 12.2013 68.47C12.1893 68.146 12.1713 67.822 12.1473 67.498C12.1353 67.162 12.0933 66.838 12.0213 66.526C11.9853 66.358 11.9973 66.244 12.0573 66.184C12.1173 66.124 12.1833 66.082 12.2553 66.058C12.3393 66.034 12.4293 66.052 12.5253 66.112C12.6333 66.172 12.7353 66.232 12.8313 66.292C12.9153 66.34 12.9933 66.37 13.0653 66.382C13.1493 66.382 13.2093 66.43 13.2453 66.526ZM15.9282 64.492C16.0002 64.804 16.0302 65.128 16.0182 65.464C16.0062 65.8 15.9882 66.142 15.9642 66.49C15.9522 66.826 15.9522 67.168 15.9642 67.516C15.9882 67.852 16.0782 68.17 16.2342 68.47C16.5102 67.786 16.8882 67.168 17.3682 66.616C17.8482 66.052 18.3582 65.548 18.8982 65.104C18.9702 65.044 19.0422 65.008 19.1142 64.996C19.1982 64.972 19.2762 64.948 19.3482 64.924C19.4082 64.9 19.4622 64.882 19.5102 64.87C19.5702 64.846 19.6482 64.858 19.7442 64.906C19.9842 65.038 20.1222 65.29 20.1582 65.662C20.1942 66.034 20.2122 66.562 20.2122 67.246C20.3922 67.066 20.5722 66.868 20.7522 66.652C20.9442 66.424 21.1362 66.208 21.3282 66.004C21.5202 65.8 21.7182 65.62 21.9222 65.464C22.1262 65.308 22.3422 65.194 22.5702 65.122C22.6422 65.098 22.7142 65.098 22.7862 65.122C22.8702 65.134 22.9482 65.14 23.0202 65.14C23.0682 65.14 23.1102 65.134 23.1462 65.122C23.1822 65.098 23.2242 65.092 23.2722 65.104C23.3442 65.116 23.4042 65.152 23.4522 65.212C23.5122 65.272 23.5542 65.338 23.5782 65.41C23.6262 65.59 23.6922 65.842 23.7762 66.166C23.8602 66.478 23.9322 66.802 23.9922 67.138C24.0642 67.462 24.1182 67.768 24.1542 68.056C24.1902 68.344 24.1902 68.548 24.1542 68.668C24.1302 68.776 24.1002 68.848 24.0642 68.884C24.0402 68.92 23.9802 68.986 23.8842 69.082C23.8602 69.082 23.8302 69.1 23.7942 69.136C23.7702 69.172 23.7402 69.208 23.7042 69.244C23.6562 69.292 23.6142 69.34 23.5782 69.388C23.4222 69.16 23.3022 68.914 23.2182 68.65C23.1342 68.386 23.0622 68.11 23.0022 67.822C22.9422 67.534 22.8882 67.24 22.8402 66.94C22.7922 66.64 22.7322 66.334 22.6602 66.022C22.3122 66.202 22.0362 66.412 21.8322 66.652C21.6402 66.88 21.4842 67.126 21.3642 67.39C21.2442 67.642 21.1362 67.9 21.0402 68.164C20.9442 68.428 20.8242 68.68 20.6802 68.92C20.5482 69.124 20.4162 69.286 20.2842 69.406C20.1522 69.526 20.0442 69.58 19.9602 69.568C19.8882 69.556 19.8342 69.49 19.7982 69.37C19.7622 69.25 19.7142 69.07 19.6542 68.83C19.5342 68.338 19.4202 67.81 19.3122 67.246C19.2162 66.682 19.1082 66.172 18.9882 65.716C18.7602 65.788 18.5322 65.92 18.3042 66.112C18.0882 66.292 17.8842 66.508 17.6922 66.76C17.5002 67 17.3262 67.27 17.1702 67.57C17.0262 67.87 16.9182 68.17 16.8462 68.47C17.0022 68.782 17.0082 69.04 16.8642 69.244C16.8042 69.34 16.7202 69.424 16.6122 69.496C16.5042 69.556 16.3782 69.622 16.2342 69.694C16.1502 69.778 16.0602 69.808 15.9642 69.784C15.8682 69.76 15.7902 69.706 15.7302 69.622C15.6702 69.526 15.6342 69.448 15.6222 69.388C15.5502 69.004 15.4782 68.608 15.4062 68.2C15.3342 67.78 15.2862 67.36 15.2622 66.94C15.2502 66.52 15.2682 66.106 15.3162 65.698C15.3642 65.278 15.4662 64.876 15.6222 64.492C15.6462 64.42 15.6702 64.384 15.6942 64.384C15.7182 64.384 15.7422 64.396 15.7662 64.42C15.7902 64.432 15.8142 64.444 15.8382 64.456C15.8622 64.468 15.8742 64.474 15.8742 64.474C15.8862 64.474 15.9042 64.48 15.9282 64.492ZM29.5347 64.456C29.6187 64.54 29.6967 64.636 29.7687 64.744C29.8407 64.84 29.9007 64.942 29.9487 65.05C30.0447 65.278 30.0927 65.506 30.0927 65.734C30.1047 65.95 30.0207 66.214 29.8407 66.526C29.6367 66.862 29.3727 67.144 29.0487 67.372C28.7367 67.6 28.3947 67.744 28.0227 67.804C27.7587 67.852 27.4947 67.852 27.2307 67.804C26.9667 67.744 26.7147 67.624 26.4747 67.444C26.4027 67.504 26.3427 67.594 26.2947 67.714C26.2587 67.822 26.2467 67.924 26.2587 68.02C26.2827 68.188 26.3427 68.374 26.4387 68.578C26.5467 68.77 26.6607 68.902 26.7807 68.974C26.9847 69.058 27.2667 69.064 27.6267 68.992C27.9987 68.92 28.3887 68.812 28.7967 68.668C29.2167 68.512 29.6247 68.344 30.0207 68.164C30.4287 67.972 30.7767 67.81 31.0647 67.678C31.0647 67.75 31.0467 67.798 31.0107 67.822C30.9867 67.846 30.9507 67.888 30.9027 67.948C30.8427 68.008 30.7767 68.08 30.7047 68.164C30.6327 68.248 30.5487 68.32 30.4527 68.38C30.3327 68.452 30.2427 68.548 30.1827 68.668C30.1227 68.776 30.0087 68.878 29.8407 68.974C29.6127 69.094 29.3787 69.22 29.1387 69.352C28.9107 69.472 28.6827 69.586 28.4547 69.694C28.2267 69.79 27.9927 69.868 27.7527 69.928C27.5247 69.976 27.2967 69.988 27.0687 69.964C26.9127 69.94 26.7807 69.898 26.6727 69.838C26.5767 69.778 26.4567 69.688 26.3127 69.568C26.2407 69.508 26.1567 69.448 26.0607 69.388C25.9647 69.328 25.8927 69.268 25.8447 69.208C25.6407 68.908 25.5027 68.59 25.4307 68.254C25.3587 67.906 25.3407 67.564 25.3767 67.228C25.4247 66.88 25.5147 66.544 25.6467 66.22C25.7787 65.884 25.9527 65.578 26.1687 65.302C26.2887 65.146 26.4327 64.99 26.6007 64.834C26.7807 64.666 26.9727 64.522 27.1767 64.402C27.3927 64.27 27.6147 64.168 27.8427 64.096C28.0827 64.024 28.3227 63.994 28.5627 64.006C28.6587 64.018 28.7427 64.048 28.8147 64.096C28.8987 64.132 28.9887 64.174 29.0847 64.222C29.1447 64.246 29.2167 64.282 29.3007 64.33C29.3967 64.366 29.4747 64.408 29.5347 64.456ZM29.0127 65.518C28.9887 65.41 28.9227 65.314 28.8147 65.23C28.7067 65.146 28.5867 65.08 28.4547 65.032C28.3227 64.972 28.1907 64.936 28.0587 64.924C27.9267 64.912 27.8307 64.918 27.7707 64.942C27.6747 64.978 27.5607 65.044 27.4287 65.14C27.3087 65.224 27.1887 65.326 27.0687 65.446C26.9607 65.566 26.8527 65.698 26.7447 65.842C26.6487 65.974 26.5767 66.1 26.5287 66.22C26.5047 66.256 26.4807 66.316 26.4567 66.4C26.4447 66.472 26.4507 66.526 26.4747 66.562C26.6187 66.742 26.8347 66.832 27.1227 66.832C27.3987 66.832 27.6927 66.766 28.0047 66.634C28.3287 66.502 28.5567 66.364 28.6887 66.22C28.7007 66.196 28.7247 66.154 28.7607 66.094C28.8087 66.034 28.8507 65.968 28.8867 65.896C28.9227 65.824 28.9527 65.752 28.9767 65.68C29.0127 65.608 29.0247 65.554 29.0127 65.518ZM43.243 66.022C43.267 66.046 43.285 66.058 43.297 66.058C43.309 66.058 43.315 66.07 43.315 66.094C43.303 66.118 43.273 66.148 43.225 66.184C43.189 66.208 43.117 66.226 43.009 66.238C42.973 66.25 42.925 66.274 42.865 66.31C42.805 66.334 42.757 66.352 42.721 66.364C42.397 66.436 42.013 66.502 41.569 66.562C41.137 66.622 40.687 66.676 40.219 66.724C40.195 67.144 40.183 67.534 40.183 67.894C40.195 68.254 40.213 68.566 40.237 68.83C40.261 69.034 40.357 69.136 40.525 69.136C40.693 69.124 40.867 69.088 41.047 69.028C41.095 69.016 41.221 68.962 41.425 68.866C41.641 68.758 41.887 68.638 42.163 68.506C42.451 68.362 42.751 68.212 43.063 68.056C43.375 67.888 43.657 67.738 43.909 67.606C43.909 67.774 43.819 67.936 43.639 68.092C43.543 68.176 43.435 68.254 43.315 68.326C43.207 68.398 43.093 68.476 42.973 68.56C42.841 68.644 42.751 68.734 42.703 68.83C42.655 68.926 42.547 69.028 42.379 69.136C42.067 69.34 41.731 69.526 41.371 69.694C41.011 69.862 40.687 69.982 40.399 70.054C40.303 70.078 40.201 70.09 40.093 70.09C39.997 70.09 39.901 70.108 39.805 70.144C39.661 70.204 39.547 70.192 39.463 70.108C39.391 70.024 39.343 69.904 39.319 69.748C39.271 69.304 39.235 68.83 39.211 68.326C39.199 67.822 39.199 67.312 39.211 66.796C38.851 66.82 38.515 66.832 38.203 66.832C37.903 66.82 37.657 66.796 37.465 66.76C37.285 66.736 37.117 66.7 36.961 66.652C36.817 66.592 36.685 66.502 36.565 66.382C36.457 66.382 36.421 66.334 36.457 66.238C36.505 66.13 36.541 66.04 36.565 65.968C36.817 65.956 37.183 65.944 37.663 65.932C38.155 65.908 38.683 65.884 39.247 65.86C39.295 64.864 39.379 63.94 39.499 63.088C39.619 62.236 39.763 61.6 39.931 61.18C39.931 61.072 39.973 61 40.057 60.964C40.153 60.916 40.249 60.862 40.345 60.802C40.393 60.778 40.441 60.748 40.489 60.712C40.549 60.664 40.627 60.64 40.723 60.64C40.831 60.7 40.909 60.754 40.957 60.802C41.005 60.838 41.029 60.886 41.029 60.946C41.029 61.006 41.011 61.078 40.975 61.162C40.939 61.246 40.897 61.354 40.849 61.486C40.825 61.522 40.789 61.672 40.741 61.936C40.693 62.2 40.639 62.536 40.579 62.944C40.531 63.34 40.477 63.796 40.417 64.312C40.357 64.816 40.309 65.326 40.273 65.842C40.669 65.842 41.047 65.848 41.407 65.86C41.767 65.86 42.085 65.872 42.361 65.896L43.243 66.022ZM46.7938 64.798L46.4878 65.104C46.5838 65.092 46.7278 65.068 46.9198 65.032C47.1238 64.984 47.3218 64.96 47.5138 64.96C47.6578 64.984 47.7778 65.032 47.8738 65.104C47.9698 65.176 48.0298 65.314 48.0538 65.518C48.1018 65.806 48.1738 66.1 48.2698 66.4C48.3778 66.688 48.4558 66.976 48.5038 67.264C48.5638 67.552 48.5638 67.828 48.5038 68.092C48.4438 68.344 48.2818 68.572 48.0178 68.776C47.7418 69.196 47.4358 69.55 47.0998 69.838C46.7758 70.114 46.4338 70.276 46.0738 70.324C45.8338 70.36 45.5698 70.324 45.2818 70.216C44.9938 70.12 44.7838 69.946 44.6518 69.694C44.6158 69.718 44.5858 69.724 44.5618 69.712C44.5378 69.688 44.5138 69.664 44.4898 69.64C44.4658 69.616 44.4418 69.61 44.4178 69.622C44.4058 69.634 44.3938 69.628 44.3818 69.604C44.3698 69.568 44.3638 69.52 44.3638 69.46V69.424V69.388C44.3758 68.968 44.4118 68.548 44.4718 68.128C44.5438 67.696 44.6458 67.282 44.7778 66.886C44.9218 66.478 45.1018 66.1 45.3178 65.752C45.5458 65.392 45.8338 65.074 46.1818 64.798C46.3018 64.726 46.4338 64.702 46.5778 64.726C46.6018 64.726 46.6318 64.726 46.6678 64.726C46.7038 64.726 46.7458 64.75 46.7938 64.798ZM46.1818 66.022C46.1098 66.01 46.0678 65.986 46.0558 65.95C46.0438 65.914 46.0438 65.872 46.0558 65.824C46.0798 65.764 46.1038 65.698 46.1278 65.626C46.1638 65.554 46.1818 65.482 46.1818 65.41C45.9298 65.638 45.7318 65.914 45.5878 66.238C45.4558 66.562 45.3598 66.898 45.2998 67.246C45.2398 67.582 45.2098 67.912 45.2098 68.236C45.2218 68.56 45.2398 68.842 45.2638 69.082C45.2878 69.286 45.3298 69.454 45.3898 69.586C45.4498 69.706 45.5398 69.778 45.6598 69.802C45.7918 69.838 45.9658 69.802 46.1818 69.694C46.4938 69.538 46.7458 69.322 46.9378 69.046C47.1298 68.77 47.2858 68.476 47.4058 68.164C47.4538 67.996 47.4898 67.798 47.5138 67.57C47.5498 67.33 47.5438 67.108 47.4958 66.904C47.4358 66.628 47.2798 66.43 47.0278 66.31C46.7878 66.178 46.5058 66.082 46.1818 66.022ZM62.9495 63.232C62.9975 63.292 62.9855 63.358 62.9135 63.43L62.7695 63.538C62.7095 63.538 62.6675 63.556 62.6435 63.592C62.6315 63.616 62.5955 63.64 62.5355 63.664C62.4515 63.7 62.3855 63.736 62.3375 63.772C62.3015 63.796 62.1995 63.82 62.0315 63.844C61.6475 63.784 61.2215 63.76 60.7535 63.772C60.2855 63.772 59.8955 63.784 59.5835 63.808C59.6555 64.348 59.6975 64.918 59.7095 65.518C59.7215 66.118 59.7155 66.73 59.6915 67.354C59.6795 67.966 59.6555 68.572 59.6195 69.172C59.5955 69.772 59.5835 70.342 59.5835 70.882V71.188C59.5235 70.984 59.4755 70.762 59.4395 70.522C59.4155 70.438 59.3975 70.36 59.3855 70.288C59.3735 70.228 59.3555 70.156 59.3315 70.072C59.1635 69.1 59.0795 68.074 59.0795 66.994C59.0795 65.914 59.1455 64.864 59.2775 63.844C58.5935 63.94 57.9335 64.042 57.2975 64.15C56.6615 64.258 56.0315 64.414 55.4075 64.618C55.3355 64.642 55.2635 64.66 55.1915 64.672C55.1315 64.684 55.0655 64.702 54.9935 64.726C54.9335 64.666 54.8795 64.624 54.8315 64.6C54.7835 64.576 54.7535 64.516 54.7415 64.42C54.7175 64.288 54.7535 64.186 54.8495 64.114C54.9455 64.03 55.0415 63.94 55.1375 63.844C55.1735 63.832 55.1975 63.802 55.2095 63.754C55.2215 63.706 55.2335 63.658 55.2455 63.61C55.2695 63.562 55.2875 63.52 55.2995 63.484C55.3115 63.436 55.3355 63.406 55.3715 63.394C55.9595 63.19 56.5775 63.028 57.2255 62.908C57.8735 62.788 58.5215 62.716 59.1695 62.692C59.8295 62.668 60.4775 62.698 61.1135 62.782C61.7615 62.866 62.3735 63.016 62.9495 63.232ZM69.7237 64.186C69.7237 64.294 69.7417 64.432 69.7777 64.6C69.8137 64.756 69.8017 64.882 69.7417 64.978C69.7177 65.002 69.7057 65.05 69.7057 65.122C69.7057 65.182 69.6877 65.224 69.6517 65.248L69.4177 65.104C69.2257 65.008 69.0097 64.966 68.7697 64.978C68.5417 64.99 68.3077 65.044 68.0677 65.14C67.8997 65.212 67.7317 65.314 67.5637 65.446C67.4077 65.566 67.2577 65.704 67.1137 65.86C66.9697 66.016 66.8377 66.178 66.7177 66.346C66.5977 66.514 66.4957 66.676 66.4117 66.832C66.2197 67.18 66.1237 67.6 66.1237 68.092C66.1357 68.584 66.3157 69.22 66.6637 70C66.6637 70.084 66.6037 70.186 66.4837 70.306C66.4597 70.33 66.4297 70.366 66.3937 70.414C66.3577 70.462 66.3277 70.498 66.3037 70.522C66.2077 70.606 66.1477 70.678 66.1237 70.738C66.1117 70.798 66.0757 70.84 66.0157 70.864C65.9197 70.9 65.8297 70.816 65.7457 70.612C65.5417 70.252 65.3437 69.814 65.1517 69.298C64.9717 68.77 64.7977 68.23 64.6297 67.678C64.4737 67.126 64.3297 66.598 64.1977 66.094C64.0777 65.578 63.9817 65.146 63.9097 64.798C63.8737 64.702 63.8677 64.612 63.8917 64.528C63.9157 64.432 63.9517 64.354 63.9997 64.294C64.0357 64.246 64.0777 64.234 64.1257 64.258C64.1857 64.282 64.2337 64.294 64.2697 64.294C64.4257 64.294 64.5217 64.324 64.5577 64.384C64.5937 64.444 64.6537 64.522 64.7377 64.618C64.9057 64.81 65.0377 65.068 65.1337 65.392C65.2297 65.716 65.3497 66.1 65.4937 66.544C65.6857 66.22 65.9317 65.908 66.2317 65.608C66.5437 65.308 66.8797 65.038 67.2397 64.798C67.5997 64.546 67.9717 64.342 68.3557 64.186C68.7397 64.03 69.1117 63.934 69.4717 63.898C69.5437 63.886 69.6037 63.91 69.6517 63.97C69.7117 64.018 69.7357 64.09 69.7237 64.186ZM75.312 64.69C75.468 65.074 75.612 65.488 75.744 65.932C75.888 66.376 75.984 66.82 76.032 67.264C76.092 67.696 76.092 68.116 76.032 68.524C75.984 68.932 75.846 69.286 75.618 69.586C75.522 69.706 75.408 69.754 75.276 69.73C75.228 69.718 75.186 69.688 75.15 69.64C75.114 69.592 75.066 69.55 75.006 69.514C74.958 69.478 74.904 69.448 74.844 69.424C74.796 69.4 74.748 69.352 74.7 69.28C74.52 69.34 74.34 69.43 74.16 69.55C73.992 69.658 73.818 69.772 73.638 69.892C73.458 70.012 73.272 70.126 73.08 70.234C72.888 70.354 72.69 70.438 72.486 70.486C72.27 70.546 72.108 70.534 72 70.45C71.904 70.378 71.796 70.294 71.676 70.198C71.592 70.126 71.538 70.078 71.514 70.054C71.49 70.042 71.466 69.97 71.442 69.838C71.406 69.574 71.4 69.292 71.424 68.992C71.46 68.68 71.532 68.368 71.64 68.056C71.94 67.144 72.552 66.532 73.476 66.22C73.584 66.184 73.692 66.178 73.8 66.202C73.92 66.214 74.034 66.244 74.142 66.292C74.25 66.34 74.352 66.4 74.448 66.472C74.556 66.544 74.652 66.616 74.736 66.688L75.024 66.922C75.084 66.718 75.078 66.502 75.006 66.274C74.946 66.034 74.85 65.812 74.718 65.608C74.586 65.392 74.436 65.2 74.268 65.032C74.1 64.864 73.938 64.75 73.782 64.69C73.17 64.69 72.618 64.834 72.126 65.122C71.646 65.398 71.178 65.764 70.722 66.22C70.698 66.244 70.668 66.262 70.632 66.274C70.608 66.286 70.584 66.298 70.56 66.31C70.524 66.334 70.482 66.34 70.434 66.328C70.398 66.316 70.392 66.28 70.416 66.22C70.488 65.836 70.632 65.494 70.848 65.194C71.064 64.882 71.316 64.612 71.604 64.384C71.892 64.156 72.198 63.964 72.522 63.808C72.846 63.652 73.164 63.538 73.476 63.466C73.524 63.442 73.566 63.43 73.602 63.43C73.65 63.418 73.704 63.412 73.764 63.412C73.848 63.412 73.926 63.436 73.998 63.484C74.07 63.532 74.154 63.586 74.25 63.646C74.37 63.706 74.49 63.778 74.61 63.862C74.73 63.934 74.838 64.024 74.934 64.132C75.018 64.228 75.09 64.324 75.15 64.42C75.21 64.516 75.264 64.606 75.312 64.69ZM74.7 67.894C74.628 67.738 74.514 67.594 74.358 67.462C74.214 67.33 74.046 67.234 73.854 67.174C73.662 67.102 73.452 67.084 73.224 67.12C73.008 67.156 72.786 67.264 72.558 67.444C72.486 67.6 72.414 67.774 72.342 67.966C72.27 68.146 72.216 68.332 72.18 68.524C72.144 68.704 72.126 68.89 72.126 69.082C72.138 69.262 72.18 69.43 72.252 69.586C72.708 69.43 73.152 69.25 73.584 69.046C74.016 68.842 74.388 68.662 74.7 68.506C74.772 68.434 74.814 68.374 74.826 68.326C74.838 68.278 74.832 68.236 74.808 68.2C74.796 68.164 74.772 68.122 74.736 68.074C74.712 68.026 74.7 67.966 74.7 67.894ZM81.5483 64.24C81.5483 65.08 81.4403 65.908 81.2243 66.724C81.0083 67.528 80.7623 68.29 80.4863 69.01C80.4623 69.082 80.4203 69.148 80.3603 69.208C80.3003 69.256 80.2403 69.31 80.1803 69.37C80.0483 69.514 79.9283 69.646 79.8203 69.766C79.7243 69.886 79.6103 69.994 79.4783 70.09C79.3823 70.174 79.2563 70.252 79.1003 70.324C78.9563 70.408 78.8543 70.42 78.7943 70.36C78.5663 69.976 78.3683 69.592 78.2003 69.208C78.0443 68.824 77.9063 68.434 77.7863 68.038C77.6783 67.63 77.5823 67.216 77.4983 66.796C77.4143 66.364 77.3363 65.92 77.2643 65.464C77.2403 65.368 77.2463 65.296 77.2823 65.248C77.3183 65.2 77.3603 65.158 77.4083 65.122C77.4443 65.098 77.4623 65.056 77.4623 64.996C77.4743 64.924 77.5103 64.876 77.5703 64.852C77.6663 64.912 77.7383 65.008 77.7863 65.14C77.8343 65.26 77.8943 65.386 77.9663 65.518C78.0263 65.626 78.0803 65.716 78.1283 65.788C78.1883 65.848 78.2483 65.944 78.3083 66.076C78.4523 66.412 78.5843 66.838 78.7043 67.354C78.8243 67.87 78.9563 68.404 79.1003 68.956C79.3283 68.656 79.5263 68.362 79.6943 68.074C79.8743 67.774 80.0303 67.48 80.1623 67.192C80.2943 66.892 80.4203 66.598 80.5403 66.31C80.6723 66.01 80.8103 65.704 80.9543 65.392C81.0023 65.296 81.0563 65.2 81.1163 65.104C81.1883 64.996 81.2483 64.894 81.2963 64.798C81.3563 64.702 81.3983 64.612 81.4223 64.528C81.4463 64.432 81.4883 64.336 81.5483 64.24ZM86.8288 64.456C86.9128 64.54 86.9908 64.636 87.0628 64.744C87.1348 64.84 87.1948 64.942 87.2428 65.05C87.3388 65.278 87.3868 65.506 87.3868 65.734C87.3988 65.95 87.3148 66.214 87.1348 66.526C86.9308 66.862 86.6668 67.144 86.3428 67.372C86.0308 67.6 85.6888 67.744 85.3168 67.804C85.0528 67.852 84.7888 67.852 84.5248 67.804C84.2608 67.744 84.0088 67.624 83.7688 67.444C83.6968 67.504 83.6368 67.594 83.5888 67.714C83.5528 67.822 83.5408 67.924 83.5528 68.02C83.5768 68.188 83.6368 68.374 83.7328 68.578C83.8408 68.77 83.9548 68.902 84.0748 68.974C84.2788 69.058 84.5608 69.064 84.9208 68.992C85.2928 68.92 85.6828 68.812 86.0908 68.668C86.5108 68.512 86.9188 68.344 87.3148 68.164C87.7228 67.972 88.0708 67.81 88.3588 67.678C88.3588 67.75 88.3408 67.798 88.3048 67.822C88.2808 67.846 88.2448 67.888 88.1968 67.948C88.1368 68.008 88.0708 68.08 87.9988 68.164C87.9268 68.248 87.8428 68.32 87.7468 68.38C87.6268 68.452 87.5368 68.548 87.4768 68.668C87.4168 68.776 87.3028 68.878 87.1348 68.974C86.9068 69.094 86.6728 69.22 86.4328 69.352C86.2048 69.472 85.9768 69.586 85.7488 69.694C85.5208 69.79 85.2868 69.868 85.0468 69.928C84.8188 69.976 84.5908 69.988 84.3628 69.964C84.2068 69.94 84.0748 69.898 83.9668 69.838C83.8708 69.778 83.7508 69.688 83.6068 69.568C83.5348 69.508 83.4508 69.448 83.3548 69.388C83.2588 69.328 83.1868 69.268 83.1388 69.208C82.9348 68.908 82.7968 68.59 82.7248 68.254C82.6528 67.906 82.6348 67.564 82.6708 67.228C82.7188 66.88 82.8088 66.544 82.9408 66.22C83.0728 65.884 83.2468 65.578 83.4628 65.302C83.5828 65.146 83.7268 64.99 83.8948 64.834C84.0748 64.666 84.2668 64.522 84.4708 64.402C84.6868 64.27 84.9088 64.168 85.1368 64.096C85.3768 64.024 85.6168 63.994 85.8568 64.006C85.9528 64.018 86.0368 64.048 86.1088 64.096C86.1928 64.132 86.2828 64.174 86.3788 64.222C86.4388 64.246 86.5108 64.282 86.5948 64.33C86.6908 64.366 86.7688 64.408 86.8288 64.456ZM86.3068 65.518C86.2828 65.41 86.2168 65.314 86.1088 65.23C86.0008 65.146 85.8808 65.08 85.7488 65.032C85.6168 64.972 85.4848 64.936 85.3528 64.924C85.2208 64.912 85.1248 64.918 85.0648 64.942C84.9688 64.978 84.8548 65.044 84.7228 65.14C84.6028 65.224 84.4828 65.326 84.3628 65.446C84.2548 65.566 84.1468 65.698 84.0388 65.842C83.9428 65.974 83.8708 66.1 83.8228 66.22C83.7988 66.256 83.7748 66.316 83.7508 66.4C83.7388 66.472 83.7448 66.526 83.7688 66.562C83.9128 66.742 84.1288 66.832 84.4168 66.832C84.6928 66.832 84.9868 66.766 85.2988 66.634C85.6228 66.502 85.8508 66.364 85.9828 66.22C85.9948 66.196 86.0188 66.154 86.0548 66.094C86.1028 66.034 86.1448 65.968 86.1808 65.896C86.2168 65.824 86.2468 65.752 86.2708 65.68C86.3068 65.608 86.3188 65.554 86.3068 65.518ZM90.2882 61.432C90.4322 62.08 90.5462 62.728 90.6302 63.376C90.7142 64.024 90.7922 64.672 90.8642 65.32C90.9362 65.968 91.0082 66.616 91.0802 67.264C91.1642 67.912 91.2722 68.56 91.4042 69.208C91.3802 69.364 91.3622 69.49 91.3502 69.586C91.3382 69.682 91.3082 69.742 91.2602 69.766C91.2002 69.802 91.1402 69.844 91.0802 69.892C91.0322 69.928 90.9782 69.958 90.9182 69.982C90.8942 69.994 90.8702 70.012 90.8462 70.036C90.8222 70.072 90.7922 70.096 90.7562 70.108C90.7322 70.12 90.7082 70.12 90.6842 70.108C90.6602 70.096 90.6302 70.06 90.5942 70C90.3662 69.316 90.1562 68.626 89.9642 67.93C89.7842 67.234 89.6342 66.532 89.5142 65.824C89.4062 65.116 89.3342 64.402 89.2982 63.682C89.2742 62.95 89.2982 62.2 89.3702 61.432C89.3702 61.252 89.4242 61.138 89.5322 61.09C89.5802 61.066 89.6402 61.084 89.7122 61.144C89.7962 61.204 89.8682 61.246 89.9282 61.27C90.0122 61.306 90.0782 61.33 90.1262 61.342C90.1742 61.342 90.2282 61.372 90.2882 61.432Z" fill="black"/>
</svg>
